<mxfile host="65bd71144e">
    <diagram id="local-dev" name="Ambiente Local - LocalStack + kind">
        <mxGraphModel dx="2200" dy="1400" grid="1" gridSize="10" guides="1" tooltips="1" connect="1" arrows="1" fold="1" page="1" pageScale="1" pageWidth="1800" pageHeight="1200" math="0" shadow="0">
            <root>
                <mxCell id="0"/>
                <mxCell id="1" parent="0"/>
                
                <!-- Docker Desktop Container -->
                <mxCell id="docker-host" value="Docker Desktop (Windows / Linux)" style="rounded=1;whiteSpace=wrap;html=1;fillColor=#e1d5e7;strokeColor=#9673a6;fontSize=18;fontStyle=1;verticalAlign=top;align=center;spacingTop=20;" vertex="1" parent="1">
                    <mxGeometry x="40" y="40" width="1720" height="1120" as="geometry"/>
                </mxCell>
                
                <!-- LocalStack Container -->
                <mxCell id="localstack-container" value="LocalStack Pro Container" style="rounded=1;whiteSpace=wrap;html=1;fillColor=#dae8fc;strokeColor=#6c8ebf;fontSize=16;fontStyle=1;verticalAlign=top;align=left;spacingLeft=30;spacingTop=15;" vertex="1" parent="1">
                    <mxGeometry x="80" y="120" width="700" height="900" as="geometry"/>
                </mxCell>
                
                <mxCell id="ls-logo" value="LocalStack" style="text;html=1;strokeColor=none;fillColor=none;align=center;verticalAlign=middle;whiteSpace=wrap;rounded=0;fontSize=22;fontStyle=1;fontColor=#0066CC;" vertex="1" parent="1">
                    <mxGeometry x="320" y="135" width="220" height="35" as="geometry"/>
                </mxCell>
                
                <mxCell id="ls-port" value="localhost:4566" style="text;html=1;strokeColor=#6c8ebf;fillColor=#fff2cc;align=center;verticalAlign=middle;whiteSpace=wrap;rounded=1;fontSize=13;fontStyle=1;" vertex="1" parent="1">
                    <mxGeometry x="600" y="130" width="130" height="30" as="geometry"/>
                </mxCell>
                
                <!-- AWS Services in LocalStack -->
                <mxCell id="aws-services-title" value="AWS Services Emulated" style="text;html=1;strokeColor=none;fillColor=none;align=left;verticalAlign=middle;whiteSpace=wrap;rounded=0;fontSize=14;fontStyle=1;fontColor=#232F3E;" vertex="1" parent="1">
                    <mxGeometry x="120" y="200" width="260" height="30" as="geometry"/>
                </mxCell>
                
                <!-- DynamoDB Local -->
                <mxCell id="ddb-local" value="DynamoDB&#10;Table: orders" style="sketch=0;points=[[0,0,0],[0.25,0,0],[0.5,0,0],[0.75,0,0],[1,0,0],[0,1,0],[0.25,1,0],[0.5,1,0],[0.75,1,0],[1,1,0],[0,0.25,0],[0,0.5,0],[0,0.75,0],[1,0.25,0],[1,0.5,0],[1,0.75,0]];outlineConnect=0;fontColor=#232F3E;gradientColor=#4D72F3;gradientDirection=north;fillColor=#3334B9;strokeColor=#ffffff;dashed=0;verticalLabelPosition=bottom;verticalAlign=top;align=center;html=1;fontSize=12;fontStyle=1;aspect=fixed;shape=mxgraph.aws4.resourceIcon;resIcon=mxgraph.aws4.dynamodb;" vertex="1" parent="1">
                    <mxGeometry x="140" y="260" width="90" height="90" as="geometry"/>
                </mxCell>
                
                <!-- S3 Local -->
                <mxCell id="s3-local" value="S3&#10;Buckets" style="sketch=0;points=[[0,0,0],[0.25,0,0],[0.5,0,0],[0.75,0,0],[1,0,0],[0,1,0],[0.25,1,0],[0.5,1,0],[0.75,1,0],[1,1,0],[0,0.25,0],[0,0.5,0],[0,0.75,0],[1,0.25,0],[1,0.5,0],[1,0.75,0]];outlineConnect=0;fontColor=#232F3E;gradientColor=#60A337;gradientDirection=north;fillColor=#277116;strokeColor=#ffffff;dashed=0;verticalLabelPosition=bottom;verticalAlign=top;align=center;html=1;fontSize=12;fontStyle=1;aspect=fixed;shape=mxgraph.aws4.resourceIcon;resIcon=mxgraph.aws4.s3;" vertex="1" parent="1">
                    <mxGeometry x="290" y="260" width="90" height="90" as="geometry"/>
                </mxCell>
                
                <!-- ECR Local -->
                <mxCell id="ecr-local" value="ECR&#10;Registries" style="sketch=0;points=[[0,0,0],[0.25,0,0],[0.5,0,0],[0.75,0,0],[1,0,0],[0,1,0],[0.25,1,0],[0.5,1,0],[0.75,1,0],[1,1,0],[0,0.25,0],[0,0.5,0],[0,0.75,0],[1,0.25,0],[1,0.5,0],[1,0.75,0]];outlineConnect=0;fontColor=#232F3E;gradientColor=#F78E04;gradientDirection=north;fillColor=#D05C17;strokeColor=#ffffff;dashed=0;verticalLabelPosition=bottom;verticalAlign=top;align=center;html=1;fontSize=12;fontStyle=1;aspect=fixed;shape=mxgraph.aws4.resourceIcon;resIcon=mxgraph.aws4.ecr;" vertex="1" parent="1">
                    <mxGeometry x="440" y="260" width="90" height="90" as="geometry"/>
                </mxCell>
                
                <!-- IAM Local -->
                <mxCell id="iam-local" value="IAM&#10;Roles/Policies" style="sketch=0;points=[[0,0,0],[0.25,0,0],[0.5,0,0],[0.75,0,0],[1,0,0],[0,1,0],[0.25,1,0],[0.5,1,0],[0.75,1,0],[1,1,0],[0,0.25,0],[0,0.5,0],[0,0.75,0],[1,0.25,0],[1,0.5,0],[1,0.75,0]];outlineConnect=0;fontColor=#232F3E;gradientColor=#F54749;gradientDirection=north;fillColor=#C7131F;strokeColor=#ffffff;dashed=0;verticalLabelPosition=bottom;verticalAlign=top;align=center;html=1;fontSize=12;fontStyle=1;aspect=fixed;shape=mxgraph.aws4.resourceIcon;resIcon=mxgraph.aws4.iam;" vertex="1" parent="1">
                    <mxGeometry x="590" y="260" width="90" height="90" as="geometry"/>
                </mxCell>
                
                <!-- Secrets Manager Local -->
                <mxCell id="secrets-local" value="Secrets&#10;Manager" style="sketch=0;points=[[0,0,0],[0.25,0,0],[0.5,0,0],[0.75,0,0],[1,0,0],[0,1,0],[0.25,1,0],[0.5,1,0],[0.75,1,0],[1,1,0],[0,0.25,0],[0,0.5,0],[0,0.75,0],[1,0.25,0],[1,0.5,0],[1,0.75,0]];outlineConnect=0;fontColor=#232F3E;gradientColor=#F54749;gradientDirection=north;fillColor=#C7131F;strokeColor=#ffffff;dashed=0;verticalLabelPosition=bottom;verticalAlign=top;align=center;html=1;fontSize=12;fontStyle=1;aspect=fixed;shape=mxgraph.aws4.resourceIcon;resIcon=mxgraph.aws4.secrets_manager;" vertex="1" parent="1">
                    <mxGeometry x="140" y="400" width="90" height="90" as="geometry"/>
                </mxCell>
                
                <!-- CloudWatch Local -->
                <mxCell id="cloudwatch-local" value="CloudWatch&#10;Logs" style="sketch=0;points=[[0,0,0],[0.25,0,0],[0.5,0,0],[0.75,0,0],[1,0,0],[0,1,0],[0.25,1,0],[0.5,1,0],[0.75,1,0],[1,1,0],[0,0.25,0],[0,0.5,0],[0,0.75,0],[1,0.25,0],[1,0.5,0],[1,0.75,0]];outlineConnect=0;fontColor=#232F3E;gradientColor=#F34482;gradientDirection=north;fillColor=#BC1356;strokeColor=#ffffff;dashed=0;verticalLabelPosition=bottom;verticalAlign=top;align=center;html=1;fontSize=12;fontStyle=1;aspect=fixed;shape=mxgraph.aws4.resourceIcon;resIcon=mxgraph.aws4.cloudwatch;" vertex="1" parent="1">
                    <mxGeometry x="290" y="400" width="90" height="90" as="geometry"/>
                </mxCell>
                
                <!-- VPC Local -->
                <mxCell id="vpc-local" value="VPC&#10;Networking" style="sketch=0;points=[[0,0,0],[0.25,0,0],[0.5,0,0],[0.75,0,0],[1,0,0],[0,1,0],[0.25,1,0],[0.5,1,0],[0.75,1,0],[1,1,0],[0,0.25,0],[0,0.5,0],[0,0.75,0],[1,0.25,0],[1,0.5,0],[1,0.75,0]];outlineConnect=0;fontColor=#232F3E;gradientColor=none;fillColor=#8C4FFF;strokeColor=#ffffff;dashed=0;verticalLabelPosition=bottom;verticalAlign=top;align=center;html=1;fontSize=12;fontStyle=1;aspect=fixed;shape=mxgraph.aws4.resourceIcon;resIcon=mxgraph.aws4.vpc;" vertex="1" parent="1">
                    <mxGeometry x="440" y="400" width="90" height="90" as="geometry"/>
                </mxCell>
                
                <!-- EKS Not Available -->
                <mxCell id="eks-unavailable" value="❌ EKS&#10;(Pro Only&#10;Failed)" style="sketch=0;points=[[0,0,0],[0.25,0,0],[0.5,0,0],[0.75,0,0],[1,0,0],[0,1,0],[0.25,1,0],[0.5,1,0],[0.75,1,0],[1,1,0],[0,0.25,0],[0,0.5,0],[0,0.75,0],[1,0.25,0],[1,0.5,0],[1,0.75,0]];outlineConnect=0;fontColor=#232F3E;gradientColor=none;fillColor=#ED7100;strokeColor=#ff0000;dashed=1;verticalLabelPosition=bottom;verticalAlign=top;align=center;html=1;fontSize=11;fontStyle=1;aspect=fixed;shape=mxgraph.aws4.resourceIcon;resIcon=mxgraph.aws4.eks;opacity=40;" vertex="1" parent="1">
                    <mxGeometry x="590" y="400" width="90" height="90" as="geometry"/>
                </mxCell>
                
                <!-- Persistent Data -->
                <mxCell id="persistent-data" value="📁 Persistent Data&#10;localstack-data/" style="rounded=1;whiteSpace=wrap;html=1;fillColor=#fff2cc;strokeColor=#d6b656;fontSize=12;fontStyle=1;align=center;" vertex="1" parent="1">
                    <mxGeometry x="140" y="550" width="240" height="70" as="geometry"/>
                </mxCell>
                
                <!-- kind Cluster -->
                <mxCell id="kind-container" value="kind Cluster (case-local)" style="rounded=1;whiteSpace=wrap;html=1;fillColor=#d5e8d4;strokeColor=#82b366;fontSize=16;fontStyle=1;verticalAlign=top;align=left;spacingLeft=30;spacingTop=15;" vertex="1" parent="1">
                    <mxGeometry x="860" y="120" width="860" height="900" as="geometry"/>
                </mxCell>
                
                <mxCell id="kind-logo" value="Kubernetes (kind)" style="text;html=1;strokeColor=none;fillColor=none;align=center;verticalAlign=middle;whiteSpace=wrap;rounded=0;fontSize=22;fontStyle=1;fontColor=#326CE5;" vertex="1" parent="1">
                    <mxGeometry x="1120" y="135" width="280" height="35" as="geometry"/>
                </mxCell>
                
                <mxCell id="kind-access" value="via kubectl" style="text;html=1;strokeColor=#82b366;fillColor=#e1d5e7;align=center;verticalAlign=middle;whiteSpace=wrap;rounded=1;fontSize=13;fontStyle=1;" vertex="1" parent="1">
                    <mxGeometry x="1540" y="130" width="130" height="30" as="geometry"/>
                </mxCell>
                
                <!-- Namespace case -->
                <mxCell id="ns-case" value="Namespace: case" style="rounded=1;whiteSpace=wrap;html=1;fillColor=#f5f5f5;strokeColor=#666666;fontSize=14;fontStyle=1;verticalAlign=top;align=left;spacingLeft=20;spacingTop=10;" vertex="1" parent="1">
                    <mxGeometry x="900" y="200" width="780" height="580" as="geometry"/>
                </mxCell>
                
                <!-- Backend Deployment -->
                <mxCell id="backend-deployment" value="Backend Deployment" style="rounded=1;whiteSpace=wrap;html=1;fillColor=#CCE5FF;strokeColor=#36393d;fontSize=12;fontStyle=1;verticalAlign=top;align=left;spacingLeft=15;spacingTop=8;" vertex="1" parent="1">
                    <mxGeometry x="940" y="250" width="320" height="180" as="geometry"/>
                </mxCell>
                
                <!-- Backend Pods -->
                <mxCell id="be-pod-1" value="Backend&#10;Pod 1" style="sketch=0;html=1;dashed=0;whitespace=wrap;fillColor=#2875E2;strokeColor=#ffffff;points=[[0.005,0.63,0],[0.1,0.2,0],[0.9,0.2,0],[0.5,0,0],[0.995,0.63,0],[0.72,0.99,0],[0.5,1,0],[0.28,0.99,0]];verticalLabelPosition=bottom;align=center;verticalAlign=top;shape=mxgraph.kubernetes.icon;prIcon=pod;fontSize=11;fontStyle=1;" vertex="1" parent="backend-deployment">
                    <mxGeometry x="30" y="40" width="70" height="70" as="geometry"/>
                </mxCell>
                
                <mxCell id="be-pod-2" value="Backend&#10;Pod 2" style="sketch=0;html=1;dashed=0;whitespace=wrap;fillColor=#2875E2;strokeColor=#ffffff;points=[[0.005,0.63,0],[0.1,0.2,0],[0.9,0.2,0],[0.5,0,0],[0.995,0.63,0],[0.72,0.99,0],[0.5,1,0],[0.28,0.99,0]];verticalLabelPosition=bottom;align=center;verticalAlign=top;shape=mxgraph.kubernetes.icon;prIcon=pod;fontSize=11;fontStyle=1;" vertex="1" parent="backend-deployment">
                    <mxGeometry x="130" y="40" width="70" height="70" as="geometry"/>
                </mxCell>
                
                <mxCell id="be-details" value="Node.js + Express&#10;dd-trace APM&#10;AWS SDK → LocalStack&#10;Port: 3000" style="text;html=1;strokeColor=none;fillColor=#E3F2FD;align=left;verticalAlign=top;whiteSpace=wrap;rounded=1;fontSize=10;spacingLeft=8;spacingTop=5;" vertex="1" parent="backend-deployment">
                    <mxGeometry x="220" y="45" width="80" height="60" as="geometry"/>
                </mxCell>
                
                <!-- Frontend Deployment -->
                <mxCell id="frontend-deployment" value="Frontend Deployment" style="rounded=1;whiteSpace=wrap;html=1;fillColor=#CCE5FF;strokeColor=#36393d;fontSize=12;fontStyle=1;verticalAlign=top;align=left;spacingLeft=15;spacingTop=8;" vertex="1" parent="1">
                    <mxGeometry x="940" y="470" width="320" height="140" as="geometry"/>
                </mxCell>
                
                <!-- Frontend Pods -->
                <mxCell id="fe-pod-1" value="Frontend&#10;Pod" style="sketch=0;html=1;dashed=0;whitespace=wrap;fillColor=#2875E2;strokeColor=#ffffff;points=[[0.005,0.63,0],[0.1,0.2,0],[0.9,0.2,0],[0.5,0,0],[0.995,0.63,0],[0.72,0.99,0],[0.5,1,0],[0.28,0.99,0]];verticalLabelPosition=bottom;align=center;verticalAlign=top;shape=mxgraph.kubernetes.icon;prIcon=pod;fontSize=11;fontStyle=1;" vertex="1" parent="frontend-deployment">
                    <mxGeometry x="30" y="40" width="70" height="70" as="geometry"/>
                </mxCell>
                
                <mxCell id="fe-details" value="React + Vite&#10;nginx server&#10;Port: 80" style="text;html=1;strokeColor=none;fillColor=#E3F2FD;align=left;verticalAlign=top;whiteSpace=wrap;rounded=1;fontSize=10;spacingLeft=8;spacingTop=5;" vertex="1" parent="frontend-deployment">
                    <mxGeometry x="130" y="45" width="80" height="45" as="geometry"/>
                </mxCell>
                
                <!-- Mobile Deployment -->
                <mxCell id="mobile-deployment" value="Mobile Deployment" style="rounded=1;whiteSpace=wrap;html=1;fillColor=#CCE5FF;strokeColor=#36393d;fontSize=12;fontStyle=1;verticalAlign=top;align=left;spacingLeft=15;spacingTop=8;" vertex="1" parent="1">
                    <mxGeometry x="940" y="650" width="320" height="100" as="geometry"/>
                </mxCell>
                
                <!-- Mobile Pod -->
                <mxCell id="mobile-pod" value="Mobile&#10;Pod" style="sketch=0;html=1;dashed=0;whitespace=wrap;fillColor=#2875E2;strokeColor=#ffffff;points=[[0.005,0.63,0],[0.1,0.2,0],[0.9,0.2,0],[0.5,0,0],[0.995,0.63,0],[0.72,0.99,0],[0.5,1,0],[0.28,0.99,0]];verticalLabelPosition=bottom;align=center;verticalAlign=top;shape=mxgraph.kubernetes.icon;prIcon=pod;fontSize=11;fontStyle=1;" vertex="1" parent="mobile-deployment">
                    <mxGeometry x="30" y="30" width="60" height="60" as="geometry"/>
                </mxCell>
                
                <mxCell id="mobile-details" value="Expo Web&#10;Port: 19006" style="text;html=1;strokeColor=none;fillColor=#E3F2FD;align=left;verticalAlign=top;whiteSpace=wrap;rounded=1;fontSize=10;spacingLeft=8;spacingTop=5;" vertex="1" parent="mobile-deployment">
                    <mxGeometry x="120" y="35" width="80" height="35" as="geometry"/>
                </mxCell>
                
                <!-- K8s Services -->
                <mxCell id="k8s-svc-box" value="Kubernetes Services" style="rounded=1;whiteSpace=wrap;html=1;fillColor=#E8F5E9;strokeColor=#388E3C;fontSize=13;fontStyle=1;verticalAlign=top;align=left;spacingLeft=15;spacingTop=8;" vertex="1" parent="1">
                    <mxGeometry x="1320" y="250" width="320" height="340" as="geometry"/>
                </mxCell>
                
                <mxCell id="backend-svc-local" value="backend" style="sketch=0;html=1;dashed=0;whitespace=wrap;fillColor=#326CE5;strokeColor=#ffffff;points=[[0.005,0.63,0],[0.1,0.2,0],[0.9,0.2,0],[0.5,0,0],[0.995,0.63,0],[0.72,0.99,0],[0.5,1,0],[0.28,0.99,0]];verticalLabelPosition=bottom;align=center;verticalAlign=top;shape=mxgraph.kubernetes.icon;prIcon=svc;fontSize=11;" vertex="1" parent="k8s-svc-box">
                    <mxGeometry x="40" y="50" width="70" height="70" as="geometry"/>
                </mxCell>
                
                <mxCell id="frontend-svc-local" value="frontend" style="sketch=0;html=1;dashed=0;whitespace=wrap;fillColor=#326CE5;strokeColor=#ffffff;points=[[0.005,0.63,0],[0.1,0.2,0],[0.9,0.2,0],[0.5,0,0],[0.995,0.63,0],[0.72,0.99,0],[0.5,1,0],[0.28,0.99,0]];verticalLabelPosition=bottom;align=center;verticalAlign=top;shape=mxgraph.kubernetes.icon;prIcon=svc;fontSize=11;" vertex="1" parent="k8s-svc-box">
                    <mxGeometry x="180" y="50" width="70" height="70" as="geometry"/>
                </mxCell>
                
                <mxCell id="mobile-svc-local" value="mobile" style="sketch=0;html=1;dashed=0;whitespace=wrap;fillColor=#326CE5;strokeColor=#ffffff;points=[[0.005,0.63,0],[0.1,0.2,0],[0.9,0.2,0],[0.5,0,0],[0.995,0.63,0],[0.72,0.99,0],[0.5,1,0],[0.28,0.99,0]];verticalLabelPosition=bottom;align=center;verticalAlign=top;shape=mxgraph.kubernetes.icon;prIcon=svc;fontSize=11;" vertex="1" parent="k8s-svc-box">
                    <mxGeometry x="110" y="160" width="70" height="70" as="geometry"/>
                </mxCell>
                
                <!-- Ingress -->
                <mxCell id="ingress-local" value="Ingress (nginx)" style="sketch=0;html=1;dashed=0;whitespace=wrap;fillColor=#FF6B00;strokeColor=#ffffff;points=[[0.005,0.63,0],[0.1,0.2,0],[0.9,0.2,0],[0.5,0,0],[0.995,0.63,0],[0.72,0.99,0],[0.5,1,0],[0.28,0.99,0]];verticalLabelPosition=bottom;align=center;verticalAlign=top;shape=mxgraph.kubernetes.icon;prIcon=ing;fontSize=12;fontStyle=1;" vertex="1" parent="1">
                    <mxGeometry x="1450" y="650" width="90" height="90" as="geometry"/>
                </mxCell>
                
                <mxCell id="ingress-port-local" value=":8080" style="text;html=1;strokeColor=#FF6B00;fillColor=#fff2cc;align=center;verticalAlign=middle;whiteSpace=wrap;rounded=1;fontSize=13;fontStyle=1;" vertex="1" parent="1">
                    <mxGeometry x="1570" y="675" width="70" height="30" as="geometry"/>
                </mxCell>
                
                <!-- ConfigMap & Secret -->
                <mxCell id="configmap-local" value="ConfigMap&#10;env-config" style="sketch=0;html=1;dashed=0;whitespace=wrap;fillColor=#326CE5;strokeColor=#ffffff;points=[[0.005,0.63,0],[0.1,0.2,0],[0.9,0.2,0],[0.5,0,0],[0.995,0.63,0],[0.72,0.99,0],[0.5,1,0],[0.28,0.99,0]];verticalLabelPosition=bottom;align=center;verticalAlign=top;shape=mxgraph.kubernetes.icon;prIcon=cm;fontSize=10;" vertex="1" parent="1">
                    <mxGeometry x="1320" y="660" width="60" height="60" as="geometry"/>
                </mxCell>
                
                <mxCell id="secret-local" value="Secret&#10;datadog" style="sketch=0;html=1;dashed=0;whitespace=wrap;fillColor=#326CE5;strokeColor=#ffffff;points=[[0,0.63,0],[0.1,0.2,0],[0.9,0.2,0],[0.5,0,0],[0.995,0.63,0],[0.72,0.99,0],[0.5,1,0],[0.28,0.99,0]];verticalLabelPosition=bottom;align=center;verticalAlign=top;shape=mxgraph.kubernetes.icon;prIcon=secret;fontSize=10;" vertex="1" parent="1">
                    <mxGeometry x="1320" y="740" width="60" height="60" as="geometry"/>
                </mxCell>
                
                <!-- Observability Stack -->
                <mxCell id="obs-stack" value="Observability Stack (Docker Compose)" style="rounded=1;whiteSpace=wrap;html=1;fillColor=#ffe6cc;strokeColor=#d79b00;fontSize=15;fontStyle=1;verticalAlign=top;align=left;spacingLeft=20;spacingTop=12;" vertex="1" parent="1">
                    <mxGeometry x="80" y="720" width="700" height="260" as="geometry"/>
                </mxCell>
                
                <!-- Prometheus -->
                <mxCell id="prometheus-local" value="Prometheus&#10;:9090" style="shape=image;html=1;verticalAlign=top;verticalLabelPosition=bottom;labelBackgroundColor=#ffffff;imageAspect=0;aspect=fixed;image=https://cdn4.iconfinder.com/data/icons/logos-and-brands/512/255_Prometheus_Logo-128.png;fontSize=11;fontStyle=1;" vertex="1" parent="obs-stack">
                    <mxGeometry x="40" y="60" width="80" height="80" as="geometry"/>
                </mxCell>
                
                <!-- Grafana -->
                <mxCell id="grafana-local" value="Grafana&#10;:3100" style="shape=image;html=1;verticalAlign=top;verticalLabelPosition=bottom;labelBackgroundColor=#ffffff;imageAspect=0;aspect=fixed;image=https://cdn4.iconfinder.com/data/icons/logos-and-brands/512/141_Grafana_logo_logos-128.png;fontSize=11;fontStyle=1;" vertex="1" parent="obs-stack">
                    <mxGeometry x="180" y="60" width="80" height="80" as="geometry"/>
                </mxCell>
                
                <!-- Loki -->
                <mxCell id="loki-local" value="Loki&#10;:3101&#10;(Logs)" style="rounded=1;whiteSpace=wrap;html=1;fillColor=#f8cecc;strokeColor=#b85450;fontSize=11;fontStyle=1;" vertex="1" parent="obs-stack">
                    <mxGeometry x="320" y="70" width="80" height="60" as="geometry"/>
                </mxCell>
                
                <!-- Tempo -->
                <mxCell id="tempo-local" value="Tempo&#10;:3102&#10;(Traces)" style="rounded=1;whiteSpace=wrap;html=1;fillColor=#ffe6cc;strokeColor=#d79b00;fontSize=11;fontStyle=1;" vertex="1" parent="obs-stack">
                    <mxGeometry x="460" y="70" width="80" height="60" as="geometry"/>
                </mxCell>
                
                <!-- Promtail -->
                <mxCell id="promtail-local" value="Promtail&#10;(Log Collector)" style="rounded=1;whiteSpace=wrap;html=1;fillColor=#e1d5e7;strokeColor=#9673a6;fontSize=10;fontStyle=1;" vertex="1" parent="obs-stack">
                    <mxGeometry x="600" y="70" width="80" height="60" as="geometry"/>
                </mxCell>
                
                <!-- Datadog Agent (Optional) -->
                <mxCell id="dd-agent-local" value="Datadog Agent&#10;(Optional)&#10;:8126 APM" style="rounded=1;whiteSpace=wrap;html=1;fillColor=#632CA6;strokeColor=#ffffff;fontColor=#ffffff;fontSize=11;fontStyle=1;" vertex="1" parent="obs-stack">
                    <mxGeometry x="240" y="170" width="120" height="60" as="geometry"/>
                </mxCell>
                
                <!-- Developer -->
                <mxCell id="developer-local" value="Developer" style="shape=umlActor;verticalLabelPosition=bottom;verticalAlign=top;html=1;outlineConnect=0;fillColor=#f8cecc;strokeColor=#b85450;fontSize=13;fontStyle=1;" vertex="1" parent="1">
                    <mxGeometry x="1800" y="500" width="60" height="120" as="geometry"/>
                </mxCell>
                
                <!-- CONNECTIONS WITH ANIMATIONS -->
                
                <!-- Developer -> Ingress -->
                <mxCell id="conn-dev-ing" style="edgeStyle=orthogonalEdgeStyle;rounded=0;orthogonalLoop=1;jettySize=auto;html=1;strokeWidth=4;strokeColor=#FF6B00;entryX=1;entryY=0.5;entryDx=0;entryDy=0;entryPerimeter=0;exitX=0;exitY=0.5;exitDx=0;exitDy=0;exitPerimeter=0;dashed=1;dashPattern=8 8;" edge="1" parent="1" source="developer-local" target="ingress-local">
                    <mxGeometry relative="1" as="geometry"/>
                </mxCell>
                <mxCell id="conn-dev-ing-label" value="HTTP :8080" style="edgeLabel;html=1;align=center;verticalAlign=middle;resizable=0;points=[];fontSize=12;fontStyle=1;fontColor=#FF6B00;labelBackgroundColor=#ffffff;" vertex="1" connectable="0" parent="conn-dev-ing">
                    <mxGeometry x="0.1" y="2" relative="1" as="geometry">
                        <mxPoint x="10" as="offset"/>
                    </mxGeometry>
                </mxCell>
                
                <!-- Ingress -> Services -->
                <mxCell id="conn-ing-besvc" style="edgeStyle=orthogonalEdgeStyle;rounded=0;orthogonalLoop=1;jettySize=auto;html=1;strokeWidth=3;strokeColor=#2875E2;entryX=0.995;entryY=0.63;entryDx=0;entryDy=0;entryPerimeter=0;exitX=0.28;exitY=0.01;exitDx=0;exitDy=0;exitPerimeter=0;" edge="1" parent="1" source="ingress-local" target="backend-svc-local">
                    <mxGeometry relative="1" as="geometry"/>
                </mxCell>
                
                <mxCell id="conn-ing-fesvc" style="edgeStyle=orthogonalEdgeStyle;rounded=0;orthogonalLoop=1;jettySize=auto;html=1;strokeWidth=3;strokeColor=#2875E2;entryX=0.995;entryY=0.63;entryDx=0;entryDy=0;entryPerimeter=0;exitX=0.5;exitY=0;exitDx=0;exitDy=0;exitPerimeter=0;" edge="1" parent="1" source="ingress-local" target="frontend-svc-local">
                    <mxGeometry relative="1" as="geometry"/>
                </mxCell>
                
                <mxCell id="conn-ing-mobsvc" style="edgeStyle=orthogonalEdgeStyle;rounded=0;orthogonalLoop=1;jettySize=auto;html=1;strokeWidth=3;strokeColor=#2875E2;entryX=0.995;entryY=0.63;entryDx=0;entryDy=0;entryPerimeter=0;exitX=0.72;exitY=0.01;exitDx=0;exitDy=0;exitPerimeter=0;" edge="1" parent="1" source="ingress-local" target="mobile-svc-local">
                    <mxGeometry relative="1" as="geometry"/>
                </mxCell>
                
                <!-- Services -> Pods -->
                <mxCell id="conn-besvc-pod" style="edgeStyle=orthogonalEdgeStyle;rounded=0;orthogonalLoop=1;jettySize=auto;html=1;strokeWidth=2;strokeColor=#326CE5;entryX=1;entryY=0.5;entryDx=0;entryDy=0;entryPerimeter=0;exitX=0;exitY=0.5;exitDx=0;exitDy=0;exitPerimeter=0;" edge="1" parent="1" source="backend-svc-local" target="be-pod-1">
                    <mxGeometry relative="1" as="geometry"/>
                </mxCell>
                
                <mxCell id="conn-fesvc-pod" style="edgeStyle=orthogonalEdgeStyle;rounded=0;orthogonalLoop=1;jettySize=auto;html=1;strokeWidth=2;strokeColor=#326CE5;entryX=1;entryY=0.5;entryDx=0;entryDy=0;entryPerimeter=0;exitX=0;exitY=0.5;exitDx=0;exitDy=0;exitPerimeter=0;" edge="1" parent="1" source="frontend-svc-local" target="fe-pod-1">
                    <mxGeometry relative="1" as="geometry"/>
                </mxCell>
                
                <mxCell id="conn-mobsvc-pod" style="edgeStyle=orthogonalEdgeStyle;rounded=0;orthogonalLoop=1;jettySize=auto;html=1;strokeWidth=2;strokeColor=#326CE5;entryX=1;entryY=0.5;entryDx=0;entryDy=0;entryPerimeter=0;exitX=0;exitY=0.5;exitDx=0;exitDy=0;exitPerimeter=0;" edge="1" parent="1" source="mobile-svc-local" target="mobile-pod">
                    <mxGeometry relative="1" as="geometry"/>
                </mxCell>
                
                <!-- Backend -> LocalStack DynamoDB -->
                <mxCell id="conn-be-ddb" style="edgeStyle=orthogonalEdgeStyle;rounded=0;orthogonalLoop=1;jettySize=auto;html=1;strokeWidth=4;strokeColor=#00C853;entryX=1;entryY=0.5;entryDx=0;entryDy=0;entryPerimeter=0;exitX=0;exitY=0.5;exitDx=0;exitDy=0;exitPerimeter=0;dashed=1;dashPattern=12 12;" edge="1" parent="1" source="be-pod-1" target="ddb-local">
                    <mxGeometry relative="1" as="geometry">
                        <Array as="points">
                            <mxPoint x="820" y="325"/>
                            <mxPoint x="820" y="305"/>
                        </Array>
                    </mxGeometry>
                </mxCell>
                <mxCell id="conn-be-ddb-label" value="AWS SDK&#10;host.docker.internal:4566" style="edgeLabel;html=1;align=center;verticalAlign=middle;resizable=0;points=[];fontSize=11;fontStyle=1;fontColor=#00C853;labelBackgroundColor=#ffffff;" vertex="1" connectable="0" parent="conn-be-ddb">
                    <mxGeometry x="0.1" y="2" relative="1" as="geometry">
                        <mxPoint x="80" y="-10" as="offset"/>
                    </mxGeometry>
                </mxCell>
                
                <!-- Backend -> Prometheus -->
                <mxCell id="conn-be-prom" style="edgeStyle=orthogonalEdgeStyle;rounded=0;orthogonalLoop=1;jettySize=auto;html=1;strokeWidth=2;strokeColor=#9933FF;entryX=1;entryY=0.5;entryDx=0;entryDy=0;exitX=0;exitY=0.75;exitDx=0;exitDy=0;exitPerimeter=0;dashed=1;dashPattern=8 8;" edge="1" parent="1" source="be-pod-2" target="prometheus-local">
                    <mxGeometry relative="1" as="geometry">
                        <Array as="points">
                            <mxPoint x="820" y="350"/>
                            <mxPoint x="820" y="820"/>
                        </Array>
                    </mxGeometry>
                </mxCell>
                <mxCell id="conn-be-prom-label" value="/metrics" style="edgeLabel;html=1;align=center;verticalAlign=middle;resizable=0;points=[];fontSize=10;fontStyle=1;fontColor=#9933FF;labelBackgroundColor=#ffffff;" vertex="1" connectable="0" parent="conn-be-prom">
                    <mxGeometry x="0.1" y="2" relative="1" as="geometry">
                        <mxPoint x="30" as="offset"/>
                    </mxGeometry>
                </mxCell>
                
                <!-- Backend -> Tempo (Traces) -->
                <mxCell id="conn-be-tempo" style="edgeStyle=orthogonalEdgeStyle;rounded=0;orthogonalLoop=1;jettySize=auto;html=1;strokeWidth=2;strokeColor=#FF6B00;entryX=1;entryY=0.5;entryDx=0;entryDy=0;exitX=0;exitY=0.25;exitDx=0;exitDy=0;exitPerimeter=0;dashed=1;dashPattern=8 8;" edge="1" parent="1" source="be-pod-2" target="tempo-local">
                    <mxGeometry relative="1" as="geometry">
                        <Array as="points">
                            <mxPoint x="840" y="310"/>
                            <mxPoint x="840" y="890"/>
                        </Array>
                    </mxGeometry>
                </mxCell>
                <mxCell id="conn-be-tempo-label" value="OTLP Traces" style="edgeLabel;html=1;align=center;verticalAlign=middle;resizable=0;points=[];fontSize=10;fontStyle=1;fontColor=#FF6B00;labelBackgroundColor=#ffffff;" vertex="1" connectable="0" parent="conn-be-tempo">
                    <mxGeometry x="0.1" y="2" relative="1" as="geometry">
                        <mxPoint x="40" as="offset"/>
                    </mxGeometry>
                </mxCell>
                
                <!-- Prometheus -> Grafana -->
                <mxCell id="conn-prom-graf" style="edgeStyle=orthogonalEdgeStyle;rounded=0;orthogonalLoop=1;jettySize=auto;html=1;strokeWidth=2;strokeColor=#9933FF;entryX=0;entryY=0.5;entryDx=0;entryDy=0;exitX=1;exitY=0.5;exitDx=0;exitDy=0;" edge="1" parent="1" source="prometheus-local" target="grafana-local">
                    <mxGeometry relative="1" as="geometry"/>
                </mxCell>
                
                <!-- Loki -> Grafana -->
                <mxCell id="conn-loki-graf" style="edgeStyle=orthogonalEdgeStyle;rounded=0;orthogonalLoop=1;jettySize=auto;html=1;strokeWidth=2;strokeColor=#E91E63;entryX=0.5;entryY=1;entryDx=0;entryDy=0;exitX=0.5;exitY=0;exitDx=0;exitDy=0;" edge="1" parent="1" source="loki-local" target="grafana-local">
                    <mxGeometry relative="1" as="geometry"/>
                </mxCell>
                
                <!-- Tempo -> Grafana -->
                <mxCell id="conn-tempo-graf" style="edgeStyle=orthogonalEdgeStyle;rounded=0;orthogonalLoop=1;jettySize=auto;html=1;strokeWidth=2;strokeColor=#FF6B00;entryX=0.75;entryY=1;entryDx=0;entryDy=0;exitX=0.25;exitY=0;exitDx=0;exitDy=0;" edge="1" parent="1" source="tempo-local" target="grafana-local">
                    <mxGeometry relative="1" as="geometry"/>
                </mxCell>
                
                <!-- Developer -> Grafana -->
                <mxCell id="conn-dev-graf" style="edgeStyle=orthogonalEdgeStyle;rounded=0;orthogonalLoop=1;jettySize=auto;html=1;strokeWidth=2;strokeColor=#673AB7;entryX=1;entryY=0.5;entryDx=0;entryDy=0;exitX=0;exitY=0.75;exitDx=0;exitDy=0;exitPerimeter=0;dashed=1;dashPattern=8 8;" edge="1" parent="1" source="developer-local" target="grafana-local">
                    <mxGeometry relative="1" as="geometry">
                        <Array as="points">
                            <mxPoint x="1760" y="590"/>
                            <mxPoint x="1760" y="1060"/>
                            <mxPoint x="340" y="1060"/>
                            <mxPoint x="340" y="840"/>
                        </Array>
                    </mxGeometry>
                </mxCell>
                <mxCell id="conn-dev-graf-label" value="View Dashboards&#10;:3100" style="edgeLabel;html=1;align=center;verticalAlign=middle;resizable=0;points=[];fontSize=10;fontStyle=1;fontColor=#673AB7;labelBackgroundColor=#ffffff;" vertex="1" connectable="0" parent="conn-dev-graf">
                    <mxGeometry x="0.1" y="2" relative="1" as="geometry">
                        <mxPoint x="-120" y="10" as="offset"/>
                    </mxGeometry>
                </mxCell>
                
                <!-- Developer -> kubectl -->
                <mxCell id="conn-dev-kubectl" style="edgeStyle=orthogonalEdgeStyle;rounded=0;orthogonalLoop=1;jettySize=auto;html=1;strokeWidth=2;strokeColor=#326CE5;entryX=1;entryY=0.5;entryDx=0;entryDy=0;exitX=0;exitY=0.25;exitDx=0;exitDy=0;exitPerimeter=0;dashed=1;dashPattern=8 8;" edge="1" parent="1" source="developer-local" target="kind-logo">
                    <mxGeometry relative="1" as="geometry">
                        <Array as="points">
                            <mxPoint x="1780" y="530"/>
                            <mxPoint x="1780" y="153"/>
                        </Array>
                    </mxGeometry>
                </mxCell>
                <mxCell id="conn-dev-kubectl-label" value="kubectl" style="edgeLabel;html=1;align=center;verticalAlign=middle;resizable=0;points=[];fontSize=11;fontStyle=1;fontColor=#326CE5;labelBackgroundColor=#ffffff;" vertex="1" connectable="0" parent="conn-dev-kubectl">
                    <mxGeometry x="0.1" y="2" relative="1" as="geometry">
                        <mxPoint x="30" y="-8" as="offset"/>
                    </mxGeometry>
                </mxCell>
                
                <!-- Legend -->
                <mxCell id="legend-local" value="" style="rounded=1;whiteSpace=wrap;html=1;fillColor=#f5f5f5;strokeColor=#666666;" vertex="1" parent="1">
                    <mxGeometry x="900" y="840" width="780" height="160" as="geometry"/>
                </mxCell>
                
                <mxCell id="legend-title-local" value="Legenda - Ambiente de Desenvolvimento Local" style="text;html=1;strokeColor=none;fillColor=none;align=center;verticalAlign=middle;whiteSpace=wrap;rounded=0;fontSize=15;fontStyle=1" vertex="1" parent="1">
                    <mxGeometry x="1050" y="850" width="480" height="30" as="geometry"/>
                </mxCell>
                
                <mxCell id="leg-local-1" value="━━━  HTTP Traffic (Developer → Ingress → Services → Pods)" style="text;html=1;strokeColor=none;fillColor=none;align=left;verticalAlign=middle;whiteSpace=wrap;rounded=0;fontSize=11;fontColor=#FF6B00;fontStyle=1" vertex="1" parent="1">
                    <mxGeometry x="930" y="895" width="360" height="20" as="geometry"/>
                </mxCell>
                
                <mxCell id="leg-local-2" value="┅┅┅  AWS SDK → LocalStack (host.docker.internal:4566)" style="text;html=1;strokeColor=none;fillColor=none;align=left;verticalAlign=middle;whiteSpace=wrap;rounded=0;fontSize=11;fontColor=#00C853;fontStyle=1" vertex="1" parent="1">
                    <mxGeometry x="930" y="920" width="360" height="20" as="geometry"/>
                </mxCell>
                
                <mxCell id="leg-local-3" value="┅┅┅  Metrics (/metrics → Prometheus → Grafana)" style="text;html=1;strokeColor=none;fillColor=none;align=left;verticalAlign=middle;whiteSpace=wrap;rounded=0;fontSize=11;fontColor=#9933FF;fontStyle=1" vertex="1" parent="1">
                    <mxGeometry x="930" y="945" width="360" height="20" as="geometry"/>
                </mxCell>
                
                <mxCell id="leg-local-4" value="┅┅┅  Traces (OTLP → Tempo → Grafana)" style="text;html=1;strokeColor=none;fillColor=none;align=left;verticalAlign=middle;whiteSpace=wrap;rounded=0;fontSize=11;fontColor=#FF6B00;fontStyle=1" vertex="1" parent="1">
                    <mxGeometry x="930" y="970" width="360" height="20" as="geometry"/>
                </mxCell>
                
                <mxCell id="leg-local-5" value="LocalStack = AWS emulator (DynamoDB, S3, ECR, IAM, etc.)" style="text;html=1;strokeColor=none;fillColor=none;align=left;verticalAlign=middle;whiteSpace=wrap;rounded=0;fontSize=11;fontStyle=1" vertex="1" parent="1">
                    <mxGeometry x="1320" y="895" width="340" height="20" as="geometry"/>
                </mxCell>
                
                <mxCell id="leg-local-6" value="kind = Kubernetes in Docker (real K8s cluster)" style="text;html=1;strokeColor=none;fillColor=none;align=left;verticalAlign=middle;whiteSpace=wrap;rounded=0;fontSize=11;fontStyle=1" vertex="1" parent="1">
                    <mxGeometry x="1320" y="920" width="340" height="20" as="geometry"/>
                </mxCell>
                
                <mxCell id="leg-local-7" value="✅ No AWS costs  |  ✅ Works offline  |  ✅ Fast iteration" style="text;html=1;strokeColor=none;fillColor=none;align=left;verticalAlign=middle;whiteSpace=wrap;rounded=0;fontSize=11;fontStyle=1;fontColor=#00C853;" vertex="1" parent="1">
                    <mxGeometry x="1320" y="945" width="340" height="20" as="geometry"/>
                </mxCell>
                
                <mxCell id="leg-local-8" value="❌ EKS Pro failed on Windows (K3D nginx issue)" style="text;html=1;strokeColor=none;fillColor=none;align=left;verticalAlign=middle;whiteSpace=wrap;rounded=0;fontSize=11;fontStyle=1;fontColor=#ff0000;" vertex="1" parent="1">
                    <mxGeometry x="1320" y="970" width="340" height="20" as="geometry"/>
                </mxCell>
                
            </root>
        </mxGraphModel>
    </diagram>
</mxfile>
